<?xml version="1.0" encoding="utf-8"?><!-- Uploaded to: SVG Repo, www.svgrepo.com, Generator: SVG Repo Mixer Tools -->
<svg width="800px" height="800px" viewBox="0 0 24 24" fill="none" xmlns="http://www.w3.org/2000/svg">
<path d="M10 9C10 8.44754 10.4476 8 10.9997 8H13C13.5071 8 13.7898 8.16249 13.9378 8.28087C14.0486 8.36952 14.1077 8.45538 14.119 8.4731C14.3737 8.94812 14.962 9.13706 15.4472 8.89443C15.9309 8.65259 16.1361 8.03372 15.8934 7.55064C15.8387 7.44229 15.7712 7.34071 15.6984 7.24375C15.5859 7.09376 15.4194 6.90487 15.1872 6.71913C14.7102 6.33751 13.9929 6 13 6H10.9997C9.34271 6 8 7.34332 8 9V14.9999C8 16.6566 9.34275 17.9999 10.9998 17.9999L13 17.9999C13.9929 18 14.7101 17.6625 15.1872 17.2809C15.4194 17.0951 15.5859 16.9062 15.6984 16.7563C15.7714 16.659 15.8389 16.5568 15.8939 16.4483C16.138 15.9605 15.9354 15.3497 15.4472 15.1056C14.962 14.8629 14.3737 15.0519 14.119 15.5269C14.1077 15.5446 14.0486 15.6305 13.9378 15.7191C13.7899 15.8375 13.5071 16 13 15.9999L10.9998 15.9999C10.4476 15.9999 10 15.5524 10 14.9999V9Z" fill="#0F0F0F"/>
<path fill-rule="evenodd" clip-rule="evenodd" d="M12 23C18.0751 23 23 18.0751 23 12C23 5.92487 18.0751 1 12 1C5.92487 1 1 5.92487 1 12C1 18.0751 5.92487 23 12 23ZM12 20.9932C7.03321 20.9932 3.00683 16.9668 3.00683 12C3.00683 7.03321 7.03321 3.00683 12 3.00683C16.9668 3.00683 20.9932 7.03321 20.9932 12C20.9932 16.9668 16.9668 20.9932 12 20.9932Z" fill="#0F0F0F"/>
</svg>